<?xml version="1.0" encoding="UTF-8"?>
<svg width="24px" height="24px" viewBox="0 0 24 24" version="1.1" xmlns="http://www.w3.org/2000/svg" xmlns:xlink="http://www.w3.org/1999/xlink">
    <g stroke="none" stroke-width="1" fill="none" fill-rule="evenodd">
        <g transform="translate(-1336.000000, -2408.000000)">
            <g transform="translate(0.000000, 2350.000000)" fill="#FFFFFF">
                <rect x="0" y="0" width="1440" height="140"></rect>
            </g>
            <g transform="translate(1218.000000, 2408.000000)" fill="#000000">
                <path d="M140,0 C141.104569,-2.02906125e-16 142,0.8954305 142,2 L142,22 C142,23.1045695 141.104569,24 140,24 L120,24 C118.895431,24 118,23.1045695 118,22 L118,2 C118,0.8954305 118.895431,2.02906125e-16 120,0 L140,0 Z M130,4 C125.582,4 122,7.582 122,12 C122,16.418 125.582,20 130,20 C134.418,20 138,16.418 138,12 C138,7.582 134.418,4 130,4 Z M131.01,13.188 C131.627,14.801 132.082,16.461 132.371,18.161 C130.139,19.022 127.736,18.605 125.943,17.206 C127.256,15.148 128.932,13.808 131.01,13.188 Z M132.389,12.895 C133.639,12.719 135.016,12.765 136.522,13.026 C136.229,14.883 135.168,16.488 133.668,17.493 C133.377,15.925 132.948,14.391 132.389,12.895 Z M130.033,10.947 C130.189,11.264 130.337,11.582 130.48,11.902 C128.227,12.607 126.369,14.05 124.921,16.223 C123.966,15.077 123.39,13.604 123.39,12 L123.39,12 L123.4,11.83 C125.965,11.826 128.18,11.531 130.033,10.947 Z M135.043,7.737 C135.942,8.8 136.506,10.149 136.59,11.627 C134.874,11.345 133.295,11.33 131.856,11.578 C131.692,11.203 131.524,10.829 131.344,10.458 C132.883,9.792 134.121,8.886 135.043,7.737 Z M127.018,6.11 C127.906,7.272 128.691,8.469 129.377,9.698 C127.756,10.174 125.822,10.419 123.586,10.435 C124.049,8.544 125.32,6.973 127.018,6.11 Z M130,5.391 C131.518,5.391 132.912,5.911 134.029,6.773 C133.225,7.809 132.117,8.628 130.705,9.226 C130.027,7.985 129.252,6.775 128.379,5.601 C128.898,5.469 129.439,5.391 130,5.391 Z"></path>
            </g>
        </g>
    </g>
</svg>