<?xml version="1.0" encoding="UTF-8"?>
<svg width="24px" height="24px" viewBox="0 0 24 24" version="1.1" xmlns="http://www.w3.org/2000/svg" xmlns:xlink="http://www.w3.org/1999/xlink">
    <g stroke="none" stroke-width="1" fill="none" fill-rule="evenodd">
        <g transform="translate(-1256.000000, -2408.000000)">
            <g transform="translate(0.000000, 2350.000000)" fill="#FFFFFF">
                <rect x="0" y="0" width="1440" height="140"></rect>
            </g>
            <g transform="translate(1218.000000, 2408.000000)" fill="#000000" fill-rule="nonzero">
                <g transform="translate(38.000000, 0.000000)">
                    <path d="M22.21,-3.2822406e-05 L1.79,-3.2822406e-05 C0.822252831,-0.0058182675 0.0271669105,0.762616728 0,1.73 L0,22.2 C0.0218553219,23.1697164 0.820102131,23.9412063 1.79,23.9301206 L22.21,23.9301206 C23.1798979,23.9412063 23.9781447,23.1697164 24,22.2 L24,1.73 C23.9728331,0.762616728 23.1777472,-0.0058182675 22.21,-3.2822406e-05 Z M7.11,20.41 L3.59,20.41 L3.59,9 L7.11,9 L7.11,20.41 Z M5.39,7.41 C4.26601551,7.41032794 3.34714934,6.5136566 3.32,5.39 C3.30021611,4.83517317 3.51194502,4.29708732 3.90451617,3.90451617 C4.29708732,3.51194502 4.83517317,3.30021611 5.39,3.32 C6.47480091,3.39553578 7.31621196,4.29757245 7.31621196,5.385 C7.31621196,6.47242755 6.47480091,7.37446422 5.39,7.45 L5.39,7.41 Z M20.48,20.34 L17,20.34 L17,14.76 C17,13.43 17,11.7 15.14,11.7 C13.28,11.7 13,13.16 13,14.63 L13,20.28 L9.44,20.28 L9.44,9 L12.76,9 L12.76,10.5 L12.83,10.5 C13.523693,9.29528214 14.8312251,8.57787513 16.22,8.64 C19.81,8.64 20.48,11.04 20.48,14.09 L20.48,20.34 Z"></path>
                </g>
            </g>
        </g>
    </g>
</svg>