<?xml version="1.0" encoding="UTF-8"?>
<svg width="24px" height="24px" viewBox="0 0 24 24" version="1.1" xmlns="http://www.w3.org/2000/svg" xmlns:xlink="http://www.w3.org/1999/xlink">
    <g stroke="none" stroke-width="1" fill="none" fill-rule="evenodd">
        <g transform="translate(-1296.000000, -2408.000000)">
            <g transform="translate(0.000000, 2350.000000)" fill="#FFFFFF">
                <rect x="0" y="0" width="1440" height="140"></rect>
            </g>
            <g transform="translate(1218.000000, 2408.000000)" fill="#000000">
                <g transform="translate(78.000000, 0.000000)">
                    <path d="M22,0 C23.1045695,-2.02906125e-16 24,0.8954305 24,2 L24,22 C24,23.1045695 23.1045695,24 22,24 L2,24 C0.8954305,24 1.3527075e-16,23.1045695 0,22 L0,2 C-1.3527075e-16,0.8954305 0.8954305,2.02906125e-16 2,0 L22,0 Z M8.693,5.4154 L4.0186,5.4154 L4.0186,5.6863 L5.524,7.5 C5.67174447,7.63315294 5.74724151,7.82870995 5.7273,8.0266 L5.7273,8.0266 L5.7273,15.1526 C5.7711747,15.4096985 5.69012625,15.6723356 5.509,15.86 L5.509,15.86 L3.8154,17.9146 L3.8154,18.1855 L8.6177,18.1855 L8.6177,17.9146 L6.9241,15.8603 C6.74169645,15.6729141 6.65562391,15.4120413 6.6907,15.1529 L6.6907,15.1529 L6.6907,8.99 L10.9064,18.1855 L11.3957,18.1855 L15.0157,8.99 L15.0151079,16.4045903 C15.0121472,16.5294722 14.9943833,16.5734167 14.8878,16.68 L14.8878,16.68 L13.5856,17.9441 L13.5856,18.215 L19.9084,18.215 L19.9084,17.9441 L18.6513,16.71 C18.5403657,16.6254145 18.4853291,16.4863989 18.5083,16.3488 L18.5083,16.3488 L18.5083,7.2812 C18.4853291,7.14360113 18.5403657,7.00458547 18.6513,6.92 L18.6513,6.92 L19.9385,5.6863 L19.9385,5.4154 L15.4824,5.4154 L12.306,13.3392 L8.693,5.4154 Z"></path>
                </g>
            </g>
        </g>
    </g>
</svg>